<svg xmlns="http://www.w3.org/2000/svg" xml:space="preserve" id="cloud" x="0" y="0" version="1.1" viewBox="0 0 52 52">
  <path d="M49.862 8.032c.18-.31.18-.69 0-1-.17-.31-.5-.5-.86-.5a7.55 7.55 0 0 1-6.52-3.76c-.35-.62-1.37-.62-1.73 0a7.534 7.534 0 0 1-6.51 3.76c-.36 0-.69.19-.87.5s-.18.69 0 1a7.536 7.536 0 0 1 0 7.52c-.18.31-.18.69 0 1s.51.5.87.5c2.68 0 5.17 1.44 6.51 3.76.18.31.51.5.87.5s.69-.19.86-.5a7.55 7.55 0 0 1 6.52-3.76c.36 0 .69-.19.86-.5.18-.31.18-.69 0-1a7.536 7.536 0 0 1 0-7.52zm-8.24 7.95c-2.31 0-4.19-1.88-4.19-4.19s1.88-4.18 4.19-4.18 4.18 1.87 4.18 4.18-1.87 4.19-4.18 4.19zM25.972 30.772a3.38 3.38 0 0 1-3.37 3.38h-11.27c-1.39 0-2.58.94-2.91 2.27-.14.57-.23 1.15-.29 1.73h-.21a5.92 5.92 0 1 1 0-11.84c.14 0 .29 0 .44.02.28-3.96 3.58-7.1 7.61-7.1 2.9 0 5.49 1.61 6.79 4.16.11 0 .21.02.32.03-.34.49-.53 1.07-.53 1.7 0 1.12.62 2.14 1.61 2.65 1.12.59 1.81 1.73 1.81 3z" style="fill:#3c93c9"></path>
  <path d="M41.792 33.333c-.37 0-.73.03-1.09.08-.14-5.76-4.87-10.41-10.67-10.41-1.71 0-3.43.43-4.95 1.23-.33.17-.53.51-.53.89 0 .37.2.71.53.88 1.79.93 2.89 2.76 2.89 4.77 0 2.96-2.41 5.38-5.37 5.38h-11.27c-.46 0-.86.31-.97.76-.21.83-.31 1.66-.31 2.47 0 5.69 4.62 10.31 10.31 10.31h21.43c4.51 0 8.18-3.67 8.18-8.18s-3.67-8.18-8.18-8.18z"></path>
</svg>
