<svg xmlns="http://www.w3.org/2000/svg" xml:space="preserve" id="gears" x="0" y="0" enable-background="new 0 0 500 500" version="1.1" viewBox="0 0 500 500">
  <g>
    <path fill="#ffc55a" stroke="#22272b" stroke-miterlimit="10" stroke-width="1.5" d="M415.01,243.83l-9.28-5.36c-0.69-0.4-1.12-1.14-1.12-1.94v-13.12c0-0.8,0.43-1.54,1.12-1.94l9.28-5.36
		c0.89-0.52,1.31-1.56,1.04-2.55c-1.42-5.27-3.51-10.26-6.17-14.89c-0.52-0.89-1.55-1.33-2.54-1.06L397,200.38
		c-0.77,0.21-1.6-0.02-2.17-0.58l-9.28-9.28c-0.57-0.57-0.79-1.39-0.58-2.16l2.77-10.34c0.26-0.99-0.18-2.02-1.07-2.54
		c-4.62-2.66-9.61-4.75-14.88-6.17c-0.99-0.27-2.04,0.15-2.55,1.04l-5.36,9.28c-0.4,0.69-1.14,1.12-1.94,1.12h-13.12
		c-0.8,0-1.54-0.43-1.94-1.12l-5.36-9.28c-0.51-0.89-1.56-1.31-2.55-1.04c-5.27,1.42-10.26,3.51-14.88,6.17
		c-0.89,0.52-1.33,1.55-1.07,2.54l2.77,10.34c0.21,0.77-0.01,1.6-0.58,2.16l-9.28,9.28c-0.57,0.57-1.4,0.79-2.17,0.58l-10.34-2.77
		c-0.99-0.26-2.02,0.18-2.54,1.06c-2.66,4.63-4.75,9.62-6.17,14.89c-0.27,0.99,0.15,2.04,1.04,2.55l9.28,5.36
		c0.69,0.4,1.12,1.14,1.12,1.94v13.12c0,0.8-0.43,1.54-1.12,1.94l-9.28,5.36c-0.89,0.51-1.31,1.56-1.04,2.55
		c1.42,5.27,3.51,10.26,6.17,14.88c0.52,0.89,1.55,1.33,2.54,1.07l10.34-2.77c0.77-0.21,1.6,0.01,2.17,0.58l9.28,9.28
		c0.57,0.57,0.79,1.4,0.58,2.17l-2.77,10.34c-0.26,0.99,0.18,2.02,1.07,2.53c4.62,2.66,9.61,4.76,14.88,6.18
		c0.99,0.26,2.04-0.15,2.55-1.04l5.36-9.28c0.4-0.69,1.14-1.12,1.94-1.12h13.12c0.8,0,1.54,0.43,1.94,1.12l5.36,9.28
		c0.51,0.89,1.56,1.3,2.55,1.04c5.27-1.42,10.26-3.51,14.88-6.18c0.89-0.51,1.33-1.55,1.07-2.53l-2.77-10.34
		c-0.21-0.77,0.01-1.6,0.58-2.17l9.28-9.28c0.57-0.57,1.4-0.79,2.17-0.58l10.34,2.77c0.99,0.26,2.02-0.18,2.54-1.07
		c2.66-4.62,4.75-9.61,6.17-14.88C416.32,245.39,415.9,244.34,415.01,243.83z M355.38,254.16c-13.36,0-24.19-10.83-24.19-24.19
		s10.83-24.19,24.19-24.19c13.36,0,24.19,10.83,24.19,24.19S368.74,254.16,355.38,254.16z"></path>
    <path fill="#125b9a" stroke="#22272b" stroke-miterlimit="10" stroke-width="1.5" d="M268.28,227.51l-14.22-8.21c-1.06-0.62-1.71-1.75-1.71-2.97v-20.1c0-1.23,0.65-2.36,1.71-2.97l14.22-8.21
		c1.36-0.79,2-2.39,1.59-3.91c-2.18-8.07-5.37-15.72-9.45-22.8c-0.79-1.36-2.37-2.03-3.89-1.63l-15.84,4.25
		c-1.18,0.32-2.45-0.03-3.32-0.9l-14.21-14.22c-0.88-0.87-1.21-2.13-0.9-3.31l4.24-15.84c0.4-1.52-0.27-3.1-1.64-3.89
		c-7.07-4.08-14.73-7.28-22.79-9.45c-1.52-0.41-3.13,0.23-3.91,1.59l-8.21,14.22c-0.62,1.06-1.74,1.71-2.97,1.71h-20.1
		c-1.23,0-2.36-0.65-2.97-1.71l-8.21-14.22c-0.78-1.36-2.39-2-3.91-1.59c-8.07,2.18-15.72,5.37-22.79,9.45
		c-1.37,0.79-2.04,2.37-1.64,3.89l4.24,15.84c0.32,1.18-0.02,2.44-0.9,3.31l-14.21,14.22c-0.87,0.87-2.14,1.21-3.32,0.9l-15.84-4.25
		c-1.52-0.4-3.1,0.27-3.89,1.63c-4.08,7.08-7.28,14.74-9.45,22.8c-0.41,1.52,0.23,3.12,1.59,3.91l14.22,8.21
		c1.06,0.62,1.71,1.74,1.71,2.97v20.1c0,1.22-0.65,2.36-1.71,2.97l-14.22,8.21c-1.36,0.78-2,2.39-1.59,3.91
		c2.18,8.07,5.37,15.72,9.45,22.79c0.79,1.37,2.37,2.04,3.89,1.64l15.84-4.24c1.18-0.32,2.45,0.02,3.32,0.89l14.21,14.22
		c0.88,0.87,1.21,2.14,0.9,3.32l-4.24,15.84c-0.4,1.51,0.27,3.1,1.64,3.88c7.07,4.08,14.73,7.29,22.79,9.46
		c1.52,0.4,3.13-0.23,3.91-1.59l8.21-14.22c0.62-1.06,1.74-1.71,2.97-1.71h20.1c1.23,0,2.36,0.65,2.97,1.71l8.21,14.22
		c0.78,1.36,2.39,1.99,3.91,1.59c8.07-2.18,15.72-5.38,22.79-9.46c1.37-0.78,2.04-2.37,1.64-3.88l-4.24-15.84
		c-0.32-1.18,0.02-2.45,0.9-3.32l14.21-14.22c0.87-0.87,2.14-1.2,3.32-0.89l15.84,4.24c1.52,0.4,3.1-0.27,3.89-1.64
		c4.08-7.07,7.28-14.73,9.45-22.79C270.28,229.89,269.64,228.29,268.28,227.51z M176.93,243.33c-20.46,0-37.06-16.59-37.06-37.06
		s16.59-37.06,37.06-37.06s37.06,16.59,37.06,37.06S197.4,243.33,176.93,243.33z"></path>
    <path fill="#f05a7e" stroke="#22272b" stroke-miterlimit="10" stroke-width="1.5" d="M322.27,349.72l-7.34-4.24c-0.55-0.32-0.88-0.9-0.88-1.54v-10.37c0-0.64,0.34-1.22,0.88-1.54l7.34-4.24
		c0.7-0.41,1.03-1.23,0.82-2.02c-1.12-4.16-2.77-8.11-4.88-11.77c-0.41-0.7-1.22-1.05-2.01-0.84l-8.18,2.19
		c-0.61,0.16-1.27-0.01-1.71-0.46l-7.33-7.34c-0.45-0.45-0.63-1.1-0.46-1.71l2.19-8.18c0.21-0.79-0.14-1.6-0.84-2.01
		c-3.65-2.11-7.6-3.76-11.77-4.88c-0.79-0.21-1.61,0.12-2.02,0.82l-4.24,7.34c-0.32,0.55-0.9,0.88-1.54,0.88h-10.37
		c-0.64,0-1.22-0.34-1.54-0.88l-4.24-7.34c-0.4-0.7-1.23-1.03-2.02-0.82c-4.16,1.12-8.11,2.77-11.77,4.88
		c-0.71,0.41-1.05,1.22-0.84,2.01l2.19,8.18c0.16,0.61-0.01,1.26-0.46,1.71l-7.33,7.34c-0.45,0.45-1.1,0.63-1.71,0.46l-8.18-2.19
		c-0.79-0.21-1.6,0.14-2.01,0.84c-2.11,3.66-3.76,7.61-4.88,11.77c-0.21,0.79,0.12,1.61,0.82,2.02l7.34,4.24
		c0.55,0.32,0.88,0.9,0.88,1.54v10.37c0,0.63-0.34,1.22-0.88,1.54l-7.34,4.24c-0.7,0.4-1.03,1.23-0.82,2.02
		c1.12,4.16,2.77,8.11,4.88,11.77c0.41,0.71,1.22,1.05,2.01,0.84l8.18-2.19c0.61-0.16,1.27,0.01,1.71,0.46l7.33,7.34
		c0.45,0.45,0.63,1.1,0.46,1.71l-2.19,8.18c-0.21,0.78,0.14,1.6,0.84,2c3.65,2.11,7.6,3.76,11.77,4.88
		c0.79,0.21,1.61-0.12,2.02-0.82l4.24-7.34c0.32-0.55,0.9-0.88,1.54-0.88h10.37c0.64,0,1.22,0.34,1.54,0.88l4.24,7.34
		c0.4,0.7,1.23,1.03,2.02,0.82c4.16-1.12,8.11-2.78,11.77-4.88c0.71-0.4,1.05-1.22,0.84-2l-2.19-8.18
		c-0.16-0.61,0.01-1.27,0.46-1.71l7.33-7.34c0.45-0.45,1.1-0.62,1.71-0.46l8.18,2.19c0.79,0.21,1.6-0.14,2.01-0.84
		c2.11-3.65,3.76-7.6,4.88-11.77C323.3,350.95,322.97,350.12,322.27,349.72z M275.12,357.88c-10.56,0-19.13-8.57-19.13-19.13
		s8.57-19.13,19.13-19.13s19.13,8.57,19.13,19.13S285.68,357.88,275.12,357.88z"></path>
  </g>
</svg>
