<svg xmlns="http://www.w3.org/2000/svg" viewBox="0 0 24 24" id="graph">
  <path fill="#232323" d="M6 22.75H3A1.752 1.752 0 011.25 21V16A1.752 1.752 0 013 14.25H6A1.752 1.752 0 017.75 16v5A1.752 1.752 0 016 22.75zm-3-7a.25.25 0 00-.25.25v5a.25.25 0 00.25.25H6A.25.25 0 006.25 21V16A.25.25 0 006 15.75zM13.5 22.75h-3A1.752 1.752 0 018.75 21V12a1.752 1.752 0 011.75-1.75h3A1.752 1.752 0 0115.25 12v9A1.752 1.752 0 0113.5 22.75zm-3-11a.25.25 0 00-.25.25v9a.25.25 0 00.25.25h3a.25.25 0 00.25-.25V12a.25.25 0 00-.25-.25zM21 22.75H18A1.752 1.752 0 0116.25 21V8A1.752 1.752 0 0118 6.25h3A1.752 1.752 0 0122.75 8V21A1.752 1.752 0 0121 22.75zm-3-15a.25.25 0 00-.25.25V21a.25.25 0 00.25.25h3a.25.25 0 00.25-.25V8A.25.25 0 0021 7.75z"></path>
  <path fill="#7fbde7" d="M4,9.75a.75.75,0,0,1-.53-1.28l4-4a.749.749,0,0,1,.865-.141l3.517,1.758L16.47,1.47a.75.75,0,0,1,1.06,1.06l-5,5a.751.751,0,0,1-.865.141L8.148,5.913,4.53,9.53A.744.744,0,0,1,4,9.75Z"></path>
</svg>
