<svg xmlns="http://www.w3.org/2000/svg" viewBox="0 0 100 100" id="lightning">
  <g>
    <polygon fill="#f3cb4e" points="67.03 10 38 10 22 50.5 46.52 50.5 33.07 90 78 35.5 53 35.5 67.03 10"></polygon>
  </g>
  <g>
    <path d="m33.07,91.5c-.25,0-.5-.06-.73-.19-.63-.35-.92-1.11-.69-1.79l12.77-37.52h-22.42c-.5,0-.96-.25-1.24-.66-.28-.41-.34-.93-.15-1.39l16-40.5c.23-.57.78-.95,1.4-.95h29.03c.53,0,1.02.28,1.29.74.27.46.28,1.02.02,1.49l-12.81,23.28h22.46c.58,0,1.11.33,1.36.86.25.52.17,1.15-.2,1.59l-44.93,54.5c-.29.36-.72.55-1.16.55Zm-8.87-42.5h22.31c.48,0,.94.23,1.22.63s.36.9.2,1.36l-10.8,31.73,37.68-45.71h-21.82c-.53,0-1.02-.28-1.29-.74-.27-.46-.28-1.02-.02-1.49l12.81-23.28h-25.48l-14.81,37.5Z"></path>
    <path d="M32.5 45c-.18 0-.36-.03-.54-.1-.77-.3-1.16-1.17-.86-1.94l1.39-3.62c.3-.77 1.17-1.16 1.94-.86.77.3 1.16 1.17.86 1.94l-1.39 3.62c-.23.6-.8.96-1.4.96zM35.81 36.39c-.18 0-.36-.03-.54-.1-.77-.3-1.16-1.17-.86-1.94l6.69-17.39c.3-.77 1.16-1.16 1.94-.86.77.3 1.16 1.17.86 1.94l-6.69 17.39c-.23.6-.8.96-1.4.96z"></path>
  </g>
</svg>
