<svg xmlns="http://www.w3.org/2000/svg"  
viewBox="0 0 50 50" width="30px" height="30px">
<path fill="#99c93c" d="M44.745,25.243c-0.011-0.173-0.052-0.326-0.104-0.469c-0.241-1.967-0.987-3.817-1.771-5.622 c-0.808-1.859-1.722-3.667-3.016-5.241c-2.547-3.097-6.225-5.039-9.949-6.358c-0.648-0.23-1.311-0.445-1.98-0.639 c-0.127-0.082-0.266-0.155-0.432-0.205c-5.949-1.773-12.302,1.183-16.274,5.619C7.343,16.66,5.209,22.583,5.925,28.398 c0.023,0.184,0.07,0.361,0.135,0.528c0.296,1.819,1.174,3.645,1.948,5.287c0.866,1.836,2.043,3.509,3.517,4.908 c0.461,0.438,0.956,0.838,1.465,1.219c1.197,1.111,2.517,2.033,3.926,2.75c1.486,0.942,3.249,1.53,4.971,1.897 c3.745,0.798,8.016,0.674,11.506-1.029c3.285-1.602,6.196-4.55,8.218-7.555C43.811,33.133,45.006,29.191,44.745,25.243z"/><path fill="#429ad4" d="M38.968,7.563c0.06-0.211,0.126-0.42,0.2-0.627c0.037-0.103,0.076-0.206,0.117-0.308 c0.01-0.025,0.073-0.178,0.019-0.05c-0.059,0.141,0.024-0.053,0.037-0.082c0.18-0.4,0.389-0.787,0.623-1.158 c0.111-0.175,0.227-0.347,0.349-0.514c0.035-0.048,0.067-0.104,0.109-0.147c-0.047,0.049-0.098,0.124-0.022,0.029 c0.069-0.085,0.138-0.171,0.209-0.254c0.293-0.343,0.611-0.664,0.949-0.962c0.394-0.347,0.381-1.065,0-1.414 c-0.42-0.386-0.994-0.37-1.414,0c-1.483,1.307-2.565,3.056-3.104,4.955c-0.143,0.503,0.175,1.111,0.698,1.23 C38.27,8.383,38.815,8.102,38.968,7.563L38.968,7.563z"/><path fill="#429ad4" d="M41.965,9.87c-0.066,0.086-0.095,0.122-0.011,0.015c0.035-0.044,0.071-0.088,0.106-0.132 c0.064-0.079,0.13-0.157,0.196-0.234c0.14-0.163,0.284-0.322,0.432-0.477c0.304-0.318,0.626-0.621,0.962-0.905 c0.078-0.066,0.156-0.13,0.235-0.194c0.044-0.035,0.089-0.07,0.133-0.105c0.104-0.083-0.197,0.147-0.014,0.012 c0.173-0.127,0.346-0.253,0.525-0.373c0.366-0.246,0.744-0.471,1.134-0.677c0.463-0.245,0.643-0.927,0.359-1.368 c-0.303-0.471-0.873-0.621-1.368-0.359c-1.741,0.923-3.219,2.229-4.416,3.787c-0.147,0.191-0.161,0.551-0.101,0.771 c0.064,0.232,0.243,0.483,0.46,0.598c0.232,0.123,0.513,0.184,0.771,0.101C41.633,10.244,41.798,10.089,41.965,9.87L41.965,9.87z"/><path fill="#429ad4" d="M44.074,12.806c0.137-0.137,0.282-0.265,0.435-0.384c-0.067,0.052-0.135,0.104-0.202,0.156 c0.299-0.228,0.625-0.417,0.972-0.564c-0.08,0.034-0.159,0.067-0.239,0.101c0.221-0.092,0.448-0.165,0.681-0.22 c0.239-0.057,0.475-0.25,0.598-0.46c0.125-0.214,0.179-0.53,0.101-0.771c-0.172-0.531-0.684-0.828-1.23-0.698 c-0.95,0.225-1.841,0.734-2.529,1.425c-0.181,0.182-0.293,0.45-0.293,0.707c0,0.245,0.109,0.538,0.293,0.707 c0.191,0.175,0.441,0.305,0.707,0.293C43.632,13.087,43.883,12.997,44.074,12.806L44.074,12.806z"/><path fill="#ff9600" d="M5.351,38.104c2.196,3.733,5.515,6.785,9.443,8.617c0.489,0.228,1.078,0.137,1.368-0.359 c0.253-0.433,0.133-1.139-0.359-1.368c-3.636-1.697-6.689-4.439-8.725-7.9C6.426,35.986,4.696,36.991,5.351,38.104L5.351,38.104z"/><path fill="#ff9600" d="M18.12,47.553c0.032,0.032,0.064,0.064,0.096,0.096c0.091,0.098,0.198,0.166,0.322,0.207 c0.119,0.063,0.248,0.091,0.385,0.086c0.138,0.005,0.266-0.024,0.385-0.086c0.124-0.04,0.231-0.109,0.322-0.207 c0.052-0.067,0.104-0.135,0.156-0.202c0.09-0.156,0.136-0.324,0.137-0.505c-0.012-0.089-0.024-0.177-0.036-0.266 c-0.048-0.169-0.133-0.316-0.257-0.441c-0.032-0.032-0.064-0.064-0.096-0.096c-0.091-0.098-0.198-0.166-0.322-0.207 c-0.119-0.063-0.248-0.091-0.385-0.086c-0.138-0.005-0.266,0.024-0.385,0.086c-0.124,0.04-0.231,0.109-0.322,0.207 c-0.052,0.067-0.104,0.135-0.156,0.202c-0.09,0.156-0.136,0.324-0.137,0.505c0.012,0.089,0.024,0.177,0.036,0.266 C17.91,47.281,17.996,47.428,18.12,47.553L18.12,47.553z"/><path fill="#231f20" d="M8.857,24.665c0.264-2.73,1.457-5.331,3.334-7.327c0.441-0.469-0.265-1.177-0.707-0.707 c-2.069,2.201-3.337,5.03-3.627,8.034C7.795,25.305,8.796,25.3,8.857,24.665L8.857,24.665z"/><path fill="#231f20" d="M41.44,24.371c0.231,2.399-0.105,4.796-0.985,7.04c-0.235,0.599,0.732,0.859,0.964,0.266 c0.907-2.315,1.259-4.831,1.021-7.306C42.379,23.736,41.378,23.73,41.44,24.371L41.44,24.371z"/><path fill="#231f20" d="M39.685,33.129c-0.306,0.694-0.667,1.361-1.081,1.996c-0.143,0.22-0.051,0.562,0.179,0.684 c0.249,0.132,0.531,0.055,0.684-0.179c0.414-0.635,0.775-1.303,1.081-1.996c0.056-0.127,0.089-0.245,0.05-0.385 c-0.032-0.116-0.122-0.242-0.23-0.299C40.153,32.835,39.798,32.873,39.685,33.129L39.685,33.129z"/><path fill="#fff" d="M35.177,17.57c-0.53-0.53-1.604-0.629-2.121,0c-3.908,4.756-7.392,9.837-10.39,15.208	c-1.588-3.096-3.176-6.191-4.764-9.287c-0.881-1.718-3.471-0.202-2.59,1.514c2.008,3.915,4.017,7.83,6.025,11.745	c0.504,0.983,2.083,0.972,2.59,0c3.159-6.052,6.916-11.783,11.25-17.059C35.691,19.066,35.789,18.183,35.177,17.57z"/>
</svg>